# xmcd
#
# Track frame offsets:
#	150
#	10779
#	21021
#	28494
#	39674
#	45449
#	47787
#	52364
#	56089
#	67502
#	72765
#	79574
#	90662
#	93932
#	100971
#	108892
#	121636
#	130443
#	139352
#	151874
#	162504
#	169113
#	178702
#	188250
#	200952
#	207456
#	211052
#
# Disc length: 2927 seconds
#
# Revision: 1
# Processed by: cddbd v1.5.1PL2 Copyright (c) Steve Scherf et al.
# Submitted via: audiograbber 1.83.01
#
DISCID=740b6d1b
DTITLE=국악동요제 입상작 1 - 햇빛소리 맑은소리
DYEAR=2001
DGENRE=Korean kid's song
TTITLE0=아가와 노랑나비
TTITLE1=가을 잠자리
TTITLE2=반딧불
TTITLE3=개미나그네
TTITLE4=개구리 노래잔치
TTITLE5=참새 노래
TTITLE6=쥐생원
TTITLE7=아침 해
TTITLE8=맑은 해 흘러가니
TTITLE9=동동동
TTITLE10=봄이 가고 여름이 오면
TTITLE11=여름날
TTITLE12=뒷산에 올라
TTITLE13=왕도토리
TTITLE14=우물가
TTITLE15=다음이 소리
TTITLE16=당징지
TTITLE17=대금소리
TTITLE18=우리 장단 배워보자
TTITLE19=탈춤 추세
TTITLE20=방아 노래
TTITLE21=서당 놀이
TTITLE22=꿈배를 띄우자
TTITLE23=뱃노래
TTITLE24=새 쫓는 소리
TTITLE25=허재비
TTITLE26=타작 소리
EXTD=
EXTT0=
EXTT1=
EXTT2=
EXTT3=
EXTT4=
EXTT5=
EXTT6=
EXTT7=
EXTT8=
EXTT9=
EXTT10=
EXTT11=
EXTT12=
EXTT13=
EXTT14=
EXTT15=
EXTT16=
EXTT17=
EXTT18=
EXTT19=
EXTT20=
EXTT21=
EXTT22=
EXTT23=
EXTT24=
EXTT25=
EXTT26=
PLAYORDER=
